<svg width="727" height="727" viewBox="0 0 727 727" fill="none" xmlns="http://www.w3.org/2000/svg">
<path fill-rule="evenodd" clip-rule="evenodd" d="M506.413 43.9867C506.413 19.6935 526.107 0 550.4 0H682.606C706.899 0 726.593 19.6936 726.593 43.9868V176.086C726.593 200.379 706.899 220.073 682.606 220.073H583.368C484.347 220.128 418.342 297.132 418.342 390.629L418.341 660.259C418.341 696.699 388.801 726.239 352.361 726.239H65.9801C29.5403 726.239 0 696.699 0 660.259V374.082C0 337.642 29.5403 308.101 65.9802 308.101H319.414C418.357 308.022 506.28 231.145 506.413 137.759V43.9867Z" fill="#861BE3"/>
</svg>
