<svg width="371" height="372" viewBox="0 0 371 372" fill="none" xmlns="http://www.w3.org/2000/svg">
<path fill-rule="evenodd" clip-rule="evenodd" d="M267.975 13.2513C267.975 5.93281 273.908 0 281.226 0H356.872C364.191 0 370.124 5.9328 370.124 13.2513V90.1087C370.124 97.4271 364.191 103.36 356.872 103.36L282.567 103.36C261.354 103.36 246.766 124.537 246.749 138.451C246.749 138.459 246.749 138.468 246.749 138.476L246.749 165.641C246.749 171.496 242.003 176.242 236.148 176.242H205.612L205.596 176.242C187.702 176.265 175.112 198.113 175.112 210.033L175.112 237.198C175.112 243.053 170.366 247.799 164.511 247.799H133.987H133.975C133.479 247.799 132.99 247.765 132.512 247.699C117.099 247.516 102.149 274.007 102.149 285.565L102.149 357.784C102.149 365.103 96.216 371.036 88.8975 371.036H13.2513C5.93278 371.036 0 365.103 0 357.784V280.927C0 273.609 5.9328 267.676 13.2513 267.676H84.903C108.075 267.676 123.311 245.902 123.374 236.593V205.395C123.374 199.54 128.121 194.794 133.975 194.794L161.846 194.794C181.082 194.794 194.348 175.579 195.011 162.991L195.011 133.838C195.011 127.983 199.758 123.237 205.612 123.237H234.81C254.709 123.237 267.975 99.3846 267.975 88.121L267.975 13.2513Z" fill="#44EB99"/>
</svg>
